<!--?xml version="1.0" standalone="no"?-->
              <svg id="sw-js-blob-svg" viewBox="0 0 100 100" xmlns="http://www.w3.org/2000/svg" version="1.1">
                    <defs> 
                        <linearGradient id="sw-gradient" x1="0" x2="1" y1="1" y2="0">
                            <stop id="stop1" stop-color="rgba(182, 55, 248, 1)" offset="0%"></stop>
                            <stop id="stop2" stop-color="rgba(251, 31, 112, 1)" offset="100%"></stop>
                        </linearGradient>
                    </defs>
                <path fill="url(#sw-gradient)" d="M24.4,-30.2C29.4,-24.8,29.8,-15.1,31.2,-5.7C32.6,3.7,35,12.6,32.3,20C29.7,27.3,21.9,33,14,34C6,35.1,-2,31.4,-9.2,27.7C-16.3,24.1,-22.5,20.3,-28.7,14.3C-34.9,8.3,-41.1,0,-41.3,-8.7C-41.5,-17.4,-35.7,-26.5,-27.8,-31.4C-19.9,-36.2,-10,-36.9,-0.1,-36.7C9.7,-36.5,19.3,-35.5,24.4,-30.2Z" width="100%" height="100%" transform="translate(50 50)" stroke-width="0" style="transition: all 0.3s ease 0s;"></path>
              </svg>